<?xml version="1.0" encoding="utf-8"?>
<!-- Generator: Adobe Illustrator 27.3.1, SVG Export Plug-In . SVG Version: 6.00 Build 0)  -->
<svg version="1.1" id="Layer_1" xmlns="http://www.w3.org/2000/svg" xmlns:xlink="http://www.w3.org/1999/xlink" x="0px" y="0px"
	 viewBox="0 0 32 32" style="enable-background:new 0 0 32 32;" xml:space="preserve">
<style type="text/css">
	.st0{fill:#666666;}
	.st1{fill:#FFFFFF;}
</style>
<path class="st0" d="M16,32L16,32c-5,0-9-4-9-9V9c0-5,4-9,9-9l0,0c5,0,9,4,9,9v14C25,28,21,32,16,32z"/>
<path class="st1" d="M9.6,16.3l4,5.5c0.3,0.4,0.9,0.2,0.9-0.3v-11c0-0.5-0.6-0.7-0.9-0.3l-4,5.5C9.5,15.9,9.5,16.1,9.6,16.3z"/>
<path class="st1" d="M22.5,15.7l-4-5.4c-0.3-0.4-0.9-0.2-0.9,0.3v10.8c0,0.5,0.6,0.7,0.9,0.3l4-5.4C22.6,16.1,22.6,15.9,22.5,15.7z"
	/>
</svg>
