<?xml version="1.0" encoding="utf-8"?>
<!-- Generator: Adobe Illustrator 27.2.0, SVG Export Plug-In . SVG Version: 6.00 Build 0)  -->
<svg version="1.1" id="Layer_1" xmlns="http://www.w3.org/2000/svg" xmlns:xlink="http://www.w3.org/1999/xlink" x="0px" y="0px"
	 viewBox="0 0 32 32" style="enable-background:new 0 0 32 32;" xml:space="preserve">
<style type="text/css">
	.st0{fill:none;stroke:#FFFFFF;stroke-width:3;stroke-linecap:round;stroke-miterlimit:10;}
	.st1{fill:#666666;}
	.st2{fill:#FFFFFF;}
</style>
<line class="st0" x1="16" y1="2.5" x2="16" y2="29.5"/>
<g>
	<path class="st1" d="M16,32L16,32c-5.3,0-9.6-4.3-9.6-9.6V9.6C6.4,4.3,10.7,0,16,0l0,0c5.3,0,9.6,4.3,9.6,9.6v12.8
		C25.6,27.7,21.3,32,16,32z"/>
	<path class="st2" d="M20.92,11.67H10.91c-0.55,0-1-0.45-1-1v-0.01c0-0.55,0.45-1,1-1h10.01c0.55,0,1,0.45,1,1v0.01
		C21.91,11.22,21.47,11.67,20.92,11.67z"/>
	<path class="st2" d="M21,17H11c-0.55,0-1-0.45-1-1l0,0c0-0.55,0.45-1,1-1h10c0.55,0,1,0.45,1,1l0,0C22,16.55,21.55,17,21,17z"/>
	<path class="st2" d="M21.09,22.33H11.08c-0.55,0-1-0.45-1-1v-0.01c0-0.55,0.45-1,1-1h10.01c0.55,0,1,0.45,1,1v0.01
		C22.09,21.89,21.64,22.33,21.09,22.33z"/>
</g>
</svg>
