<?xml version="1.0" encoding="utf-8"?>
<!-- Generator: Adobe Illustrator 27.3.1, SVG Export Plug-In . SVG Version: 6.00 Build 0)  -->
<svg version="1.1" id="Layer_1" xmlns="http://www.w3.org/2000/svg" xmlns:xlink="http://www.w3.org/1999/xlink" x="0px" y="0px"
	 viewBox="0 0 18 18" style="enable-background:new 0 0 18 18;" xml:space="preserve">
<g>
	<path d="M17,1.7v3.8c0,0.4-0.3,0.7-0.7,0.7c-0.4,0-0.7-0.3-0.7-0.7V3.5l-4.6,4.6c-0.2,0.2-0.3,0.2-0.5,0.2c-0.2,0-0.4-0.1-0.5-0.2
		c-0.3-0.3-0.3-0.7,0-1l4.6-4.6h-2.1c-0.4,0-0.7-0.3-0.7-0.7S12,1,12.4,1h3.8c0.2,0,0.4,0.1,0.5,0.2C17,1.3,17,1.5,17,1.7L17,1.7z
		 M7,10l-4.5,4.5v-2.1c0-0.4-0.3-0.7-0.7-0.7S1,12,1,12.5v3.8c0,0.2,0.1,0.4,0.2,0.5C1.3,16.9,1.6,17,1.8,17h3.8
		c0.4,0,0.7-0.3,0.7-0.7c0-0.4-0.3-0.7-0.7-0.7H3.5L8.1,11c0.3-0.3,0.3-0.7,0-1C7.7,9.7,7.3,9.7,7,10L7,10z"/>
</g>
</svg>
