<?xml version="1.0" encoding="utf-8"?>
<!-- Generator: Adobe Illustrator 27.3.1, SVG Export Plug-In . SVG Version: 6.00 Build 0)  -->
<svg version="1.1" id="Layer_1" xmlns="http://www.w3.org/2000/svg" xmlns:xlink="http://www.w3.org/1999/xlink" x="0px" y="0px"
	 viewBox="0 0 18 18" style="enable-background:new 0 0 18 18;" xml:space="preserve">
<path d="M8,10c0.1,0.2,0.2,0.3,0.2,0.5v3.8c0,0.4-0.3,0.7-0.7,0.7l0,0c-0.4,0-0.7-0.3-0.7-0.7v-2l-4.5,4.5C2.1,16.9,1.9,17,1.7,17
	s-0.4-0.1-0.5-0.2c-0.3-0.3-0.3-0.7,0-1l4.5-4.6h-2c-0.4,0-0.7-0.3-0.7-0.7c0-0.4,0.3-0.7,0.7-0.7h3.8C7.7,9.7,7.9,9.8,8,10L8,10z
	 M16.8,1.2c-0.3-0.3-0.7-0.3-1,0l-4.6,4.6V3.7c0-0.4-0.3-0.7-0.7-0.7c-0.4,0-0.7,0.3-0.7,0.7v3.8c0,0.2,0.1,0.4,0.2,0.5
	c0.2,0.2,0.3,0.2,0.5,0.2h3.8C14.7,8.3,15,8,15,7.6c0-0.4-0.3-0.7-0.7-0.7h-2.1l4.6-4.6C17.1,2,17.1,1.5,16.8,1.2L16.8,1.2z"/>
</svg>
